<?xml version="1.0" encoding="UTF-8" standalone="no"?>
<!-- Adobe Illustrator EMF 8.0# -->

<svg
   xmlns:dc="http://purl.org/dc/elements/1.1/"
   xmlns:cc="http://creativecommons.org/ns#"
   xmlns:rdf="http://www.w3.org/1999/02/22-rdf-syntax-ns#"
   xmlns:svg="http://www.w3.org/2000/svg"
   xmlns="http://www.w3.org/2000/svg"
   xmlns:sodipodi="http://sodipodi.sourceforge.net/DTD/sodipodi-0.dtd"
   xmlns:inkscape="http://www.inkscape.org/namespaces/inkscape"
   version="1.0"
   width="3800"
   height="3800"
   id="0"
   inkscape:version="0.47 r22583"
   sodipodi:docname="isometric-table.svg">
  <metadata
     id="metadata2858">
    <rdf:RDF>
      <cc:Work
         rdf:about="">
        <dc:format>image/svg+xml</dc:format>
        <dc:type
           rdf:resource="http://purl.org/dc/dcmitype/StillImage" />
        <dc:title />
      </cc:Work>
    </rdf:RDF>
  </metadata>
  <defs
     id="defs2856">
    <inkscape:perspective
       sodipodi:type="inkscape:persp3d"
       inkscape:vp_x="0 : 2765.3208 : 1"
       inkscape:vp_y="0 : 1000 : 0"
       inkscape:vp_z="5675.563 : 2765.3208 : 1"
       inkscape:persp3d-origin="2837.7815 : 1843.5472 : 1"
       id="perspective2860" />
  </defs>
  <sodipodi:namedview
     pagecolor="#ffffff"
     bordercolor="#666666"
     borderopacity="1"
     objecttolerance="10"
     gridtolerance="10"
     guidetolerance="10"
     inkscape:pageopacity="0"
     inkscape:pageshadow="2"
     inkscape:window-width="1280"
     inkscape:window-height="738"
     id="namedview2854"
     showgrid="false"
     inkscape:zoom="0.12069283"
     inkscape:cx="780.3717"
     inkscape:cy="1807.4171"
     inkscape:window-x="-8"
     inkscape:window-y="32"
     inkscape:window-maximized="1"
     inkscape:current-layer="0" />
  <path
     d="m 2521.7722,2234.2754 1192,-688.8 -2435.2,-1407.20006 -1192.799972,688.8 L 2521.7722,2234.2754 z"
     style="fill:#d9d9d9;fill-opacity:1;fill-rule:nonzero;stroke:#000000;stroke-width:7.5;stroke-miterlimit:4;stroke-opacity:1;stroke-dasharray:none"
     id="2" />
  <path
     d="m 3586.5722,3063.8754 0,-1394.4 127.2,-76.8 0,-47.2 -1192,688.8 0,1444.8 1064.8,-615.2 z"
     style="fill:#666666;fill-opacity:1;fill-rule:nonzero;stroke:#000000;stroke-width:7.5;stroke-miterlimit:4;stroke-opacity:1;stroke-dasharray:none"
     id="3" />
  <path
     d="m 2489.7722,2267.8754 0,1390.4 32,20.8 0,-1444.8 L 85.772228,827.07534 l 0,52.8 138.400002,78.40005 0,1392.80001 32,20 0,-1393.60001 2233.59997,1290.40001 z"
     style="fill:#33b3d1;fill-opacity:1;fill-rule:nonzero;stroke:#000000;stroke-width:7.5;stroke-miterlimit:4;stroke-opacity:1;stroke-dasharray:none"
     id="4" />
  <path
     d="m 2476.9722,2416.6754 12.8,-7.2 0,-144 -741.6,-425.6 -135.2,76.8 864,500 z"
     style="fill:#d9d9d9;fill-opacity:1;fill-rule:nonzero;stroke:#000000;stroke-width:5;stroke-miterlimit:4;stroke-opacity:1;stroke-dasharray:none"
     id="5" />
  <path
     d="m 1322.5722,1750.2754 0,-156 -1066.39997,-616.80001 0,1393.60001 1066.39997,-620.8 z"
     style="fill:#666666;fill-opacity:1;fill-rule:nonzero;stroke:#000000;stroke-width:7.5;stroke-miterlimit:4;stroke-opacity:1;stroke-dasharray:none"
     id="6" />
  <path
     d="m 2476.9722,3063.8754 0,-647.2 -864,-500 0,313.6 20.8,11.2 -20.8,14.4 0,312.8 864,495.2 z"
     style="fill:#999999;fill-opacity:1;fill-rule:nonzero;stroke:#000000;stroke-width:5;stroke-miterlimit:4;stroke-opacity:1;stroke-dasharray:none"
     id="7" />
  <path
     d="m 2490.5722,3055.8754 -13.6,8 0,-647.2 12.8,-7.2 0.8,646.4 z"
     style="fill:#666666;fill-opacity:1;fill-rule:nonzero;stroke:#000000;stroke-width:5;stroke-miterlimit:4;stroke-opacity:1;stroke-dasharray:none"
     id="8" />
  <path
     d="m 2490.5722,2720.6754 0.8,24 -13.6,10.4 -864.8,-499.2 20.8,-14.4 844,488 12.8,-8.8 z"
     style="fill:#d9d9d9;fill-opacity:1;fill-rule:nonzero;stroke:#000000;stroke-width:5;stroke-miterlimit:4;stroke-opacity:1;stroke-dasharray:none"
     id="9" />
  <path
     d="m 2487.3722,1374.2754 352,-205.6 272.8,158.4 -356.8,204.8 -268,-157.6 z"
     style="fill:#42b1d1;fill-opacity:1;fill-rule:nonzero;stroke:none"
     id="10" />
  <path
     d="m 3112.1722,1384.6754 -46.4,-28.8 -310.4,176 -268,-157.6 -8.8,11.2 0,29.6 8.8,20 268,155.2 356.8,-205.6 z"
     style="fill:#1b1083;fill-opacity:1;fill-rule:nonzero;stroke:none"
     id="11" />
  <path
     d="m 2755.3722,1574.2754 344,-197.6 0,-42.4 -344,197.6 -264.8,-156 -3.2,22.4 12.8,29.6 255.2,146.4 z"
     style="fill:#f6f5be;fill-opacity:1;fill-rule:nonzero;stroke:none"
     id="12" />
  <path
     d="m 1371.3722,909.47539 -348,203.20001 559.2,323.2 345.6,-204.8 146.4,-450.40006 -559.2,-323.2 -144,452.00005 z"
     style="fill:#a6b6b9;fill-opacity:1;fill-rule:nonzero;stroke:none"
     id="13" />
  <path
     d="m 1928.9722,1250.2754 -346.4,204 -558.4,-323.2 -0.8,-18.4 559.2,323.2 345.6,-204.8 0.8,19.2 z"
     style="fill:#1d3595;fill-opacity:1;fill-rule:nonzero;stroke:none"
     id="14" />
  <path
     d="m 1943.3722,1227.0754 144.8,-448.00006 -561.6,-324.8 -11.2,3.2 559.2,323.2 -146.4,450.40006 15.2,-4 z"
     style="fill:#1a0d81;fill-opacity:1;fill-rule:nonzero;stroke:none"
     id="15" />
  <path
     d="m 2041.7722,787.07534 -128.8,388.80006 -509.6,-294.40006 127.2,-389.6 511.2,295.2 z"
     style="fill:#e3eaf2;fill-opacity:1;fill-rule:nonzero;stroke:none"
     id="16" />
  <path
     d="m 1772.9722,807.87534 c 0,32 -19.2,56.8 -41.6,56.8 -23.2,0 -42.4,-24.8 -42.4,-56.8 0,-31.2 19.2,-56.8 42.4,-56.8 22.4,0 41.6,25.6 41.6,56.8 z"
     style="fill:#a6a6a6;fill-opacity:1;fill-rule:nonzero;stroke:none"
     id="17" />
  <path
     d="m 1725.7722,695.87534 64,37.6"
     style="fill:none;stroke:#828282;stroke-width:25;stroke-linecap:butt;stroke-linejoin:miter;stroke-miterlimit:4;stroke-opacity:1;stroke-dasharray:none"
     id="18" />
  <path
     d="m 1675.3722,701.47534 47.2,26.4"
     style="fill:none;stroke:#1b1887;stroke-width:12.5;stroke-linecap:butt;stroke-linejoin:miter;stroke-miterlimit:4;stroke-opacity:1;stroke-dasharray:none"
     id="19" />
  <path
     d="m 1645.7722,722.27534 41.6,25.6"
     style="fill:none;stroke:#1b1887;stroke-width:12.5;stroke-linecap:butt;stroke-linejoin:miter;stroke-miterlimit:4;stroke-opacity:1;stroke-dasharray:none"
     id="20" />
  <path
     d="m 1623.3722,748.67534 40.8,22.4"
     style="fill:none;stroke:#1b1887;stroke-width:12.5;stroke-linecap:butt;stroke-linejoin:miter;stroke-miterlimit:4;stroke-opacity:1;stroke-dasharray:none"
     id="21" />
  <path
     d="m 1626.5722,789.47534 38.4,20.8"
     style="fill:none;stroke:#1b1887;stroke-width:12.5;stroke-linecap:butt;stroke-linejoin:miter;stroke-miterlimit:4;stroke-opacity:1;stroke-dasharray:none"
     id="22" />
  <path
     d="m 1642.5722,836.67534 39.2,24"
     style="fill:none;stroke:#1b0d81;stroke-width:12.5;stroke-linecap:butt;stroke-linejoin:miter;stroke-miterlimit:4;stroke-opacity:1;stroke-dasharray:none"
     id="23" />
  <path
     d="m 1776.9722,759.87534 29.6,15.2"
     style="fill:none;stroke:#1b0d81;stroke-width:12.5;stroke-linecap:butt;stroke-linejoin:miter;stroke-miterlimit:4;stroke-opacity:1;stroke-dasharray:none"
     id="24" />
  <path
     d="m 1789.7722,805.47534 35.2,21.6"
     style="fill:none;stroke:#1b0d81;stroke-width:12.5;stroke-linecap:butt;stroke-linejoin:miter;stroke-miterlimit:4;stroke-opacity:1;stroke-dasharray:none"
     id="25" />
  <path
     d="m 1789.7722,845.47534 36,20.8"
     style="fill:none;stroke:#1b0d81;stroke-width:12.5;stroke-linecap:butt;stroke-linejoin:miter;stroke-miterlimit:4;stroke-opacity:1;stroke-dasharray:none"
     id="26" />
  <path
     d="m 1756.1722,864.67534 50.4,28.00005"
     style="fill:none;stroke:#1b0d81;stroke-width:12.5;stroke-linecap:butt;stroke-linejoin:miter;stroke-miterlimit:4;stroke-opacity:1;stroke-dasharray:none"
     id="27" />
  <path
     d="m 1726.5722,884.67539 42.4,24"
     style="fill:none;stroke:#1b0d81;stroke-width:12.5;stroke-linecap:butt;stroke-linejoin:miter;stroke-miterlimit:4;stroke-opacity:1;stroke-dasharray:none"
     id="28" />
  <path
     d="m 1592.9722,858.27534 206.4,116.80005"
     style="fill:none;stroke:#b9b9b9;stroke-width:37.5;stroke-linecap:butt;stroke-linejoin:miter;stroke-miterlimit:4;stroke-opacity:1;stroke-dasharray:none"
     id="29" />
  <path
     d="m 1460.1722,877.47534 408,236.00006"
     style="fill:none;stroke:#1274b2;stroke-width:18.75;stroke-linecap:butt;stroke-linejoin:miter;stroke-miterlimit:4;stroke-opacity:1;stroke-dasharray:none"
     id="30" />
  <path
     d="m 1388.9722,946.27539 478.4,276.80001 -196.8,116.8 -479.2,-276.8 197.6,-116.80001 z"
     style="fill:#222e0c;fill-opacity:1;fill-rule:nonzero;stroke:none"
     id="31" />
  <path
     d="m 1503.3722,1394.2754 76.8,44.8"
     style="fill:none;stroke:#acf500;stroke-width:7.50000000000000000;stroke-linecap:butt;stroke-linejoin:miter;stroke-miterlimit:4;stroke-opacity:1;stroke-dasharray:none"
     id="32" />
  <path
     d="m 1524.1722,511.87534 510.4,294.4 7.2,-19.2 -511.2,-295.2 -6.4,20 z"
     style="fill:#75cbe0;fill-opacity:1;fill-rule:nonzero;stroke:none"
     id="33" />
  <path
     d="m 1966.5722,2326.2754 63.2,-20 c 8.8,-5.6 22.4,0 30.4,12.8 8,12.8 7.2,27.2 -1.6,32.8 l -44.8,48.8 -47.2,-74.4 z"
     style="fill:#035b8b;fill-opacity:1;fill-rule:nonzero;stroke:none"
     id="34" />
  <path
     d="m 2013.7722,2347.8754 c 12.8,20.8 12.8,44 0,52.8 -13.6,8 -34.4,-1.6 -48,-22.4 -12.8,-20.8 -12.8,-44 0.8,-52 12.8,-8.8 34.4,1.6 47.2,21.6 z"
     style="fill:#1aa9cb;fill-opacity:1;fill-rule:nonzero;stroke:none"
     id="35" />
  <path
     d="m 1967.3722,2647.0754 63.2,-20 c 8.8,-4.8 22.4,0.8 30.4,13.6 8,12.8 8,27.2 -0.8,32.8 l -45.6,48.8 -47.2,-75.2 z"
     style="fill:#035b8b;fill-opacity:1;fill-rule:nonzero;stroke:none"
     id="36" />
  <path
     d="m 2015.3722,2669.4754 c 12.8,20.8 12.8,44 -0.8,52.8 -12.8,8 -34.4,-1.6 -47.2,-22.4 -12.8,-20.8 -12.8,-44 0,-52.8 13.6,-8 34.4,1.6 48,22.4 z"
     style="fill:#1aa9cb;fill-opacity:1;fill-rule:nonzero;stroke:none"
     id="37" />
</svg>
